<?xml version="1.0" encoding="UTF-8"?>
<svg id="Layer_1" data-name="Layer 1" xmlns="http://www.w3.org/2000/svg" viewBox="0 0 512.9996 53.4227">
  <defs>
    <style>
      .cls-1 {
        fill: #6bffb3;
      }

      .cls-2 {
        fill: #011130;
      }
    </style>
  </defs>
  <path class="cls-2" d="M305.4876,45.448c-2.795-2.007-4.586-4.794-5.373-8.354l7.888-3.23c.455,1.905,1.408,3.365,2.858,4.38,1.448,1.015,3.229,1.522,5.342,1.522,1.946,0,3.447-.363,4.503-1.087,1.056-.724,1.585-1.748,1.585-3.075,0-1.117-.363-2.027-1.087-2.733-.725-.7029-1.915-1.261-3.573-1.676l-4.534-1.181c-3.562-.953-6.284-2.4839-8.167-4.5959-1.885-2.113-2.827-4.722-2.827-7.827,0-3.852,1.284-6.915,3.852-9.194,2.569-2.276,6.026-3.415,10.374-3.415,3.767,0,6.957.881,9.566,2.641,2.609,1.761,4.306,4.234,5.092,7.422l-7.825,3.229c-.955-3.063-3.292-4.596-7.019-4.596-1.698,0-3.013.342-3.944,1.024-.9319.6819-1.397,1.625-1.397,2.825,0,.911.329,1.709.993,2.393.663.682,1.842,1.272,3.541,1.77l5.652,1.553c3.313.953,5.808,2.403,7.485,4.347,1.677,1.948,2.515,4.576,2.515,7.889,0,4.098-1.335,7.289-4.005,9.565-2.67,2.278-6.366,3.416-11.087,3.416-4.142,0-7.609-1.004-10.405-3.012h-.0031Z"/>
  <path class="cls-2" d="M346.1436,48.4589h-8.694V4.978h8.694v18.324l18.263-18.324h12.236l-18.883,19.008,18.946,24.473h-11.058l-14.038-18.262-5.466,5.466v12.796Z"/>
  <path class="cls-2" d="M385.2797,45.6339c-3.314-1.8849-5.911-4.483-7.796-7.796-1.885-3.314-2.825-7.019-2.825-11.119s.941-7.806,2.825-11.12c1.885-3.312,4.482-5.909,7.796-7.796,3.312-1.883,7.019-2.825,11.119-2.825s7.806.943,11.119,2.825c3.312,1.887,5.91,4.484,7.795,7.796,1.885,3.314,2.827,7.019,2.827,11.12s-.944,7.805-2.827,11.119c-1.883,3.313-4.483,5.911-7.795,7.796-3.313,1.885-7.019,2.825-11.119,2.825s-7.807-.942-11.119-2.825ZM403.1066,38.086c1.988-1.117,3.539-2.67,4.658-4.658,1.119-1.988,1.677-4.225,1.677-6.709,0-2.527-.558-4.773-1.677-6.74-1.119-1.966-2.67-3.51-4.658-4.627-1.988-1.118-4.223-1.676-6.709-1.676-2.527,0-4.774.558-6.74,1.676-1.967,1.118-3.51,2.661-4.628,4.627-1.117,1.967-1.675,4.215-1.675,6.74,0,2.483.558,4.721,1.675,6.709,1.119,1.988,2.6609,3.541,4.628,4.658,1.966,1.119,4.215,1.677,6.74,1.677,2.485,0,4.721-.558,6.709-1.677Z"/>
  <path class="cls-2" d="M431.2076,31.4359h-2.471V4.417h16.133v2.471h-13.663v9.804h13.663v2.471h-13.663v12.274l.001-.001Z"/>
  <path class="cls-2" d="M459.8896,31.4359h-2.47v-11.539l-10.81-15.48h3.05l8.9901,12.97,9-12.97h3.01l-10.77,15.48v11.539Z"/>
  <path class="cls-1" d="M503.7997,31.429c-3.5801,0-6.3501-1.481-8.02-4.209-1.2101-2.0649-1.8301-4.831-1.8301-8.338,0-9.234,4.2001-14.728,11.37-14.728,2.3,0,4.41.506,6.5901,1.675l-2.14,4.948c-1.5601-.779-3.16-1.168-4.76-1.168-2.84,0-4.95,1.909-5.22,4.714,1.33-.779,3-1.286,4.33-1.286,5.22,0,8.88,3.741,8.88,9.079,0,5.494-3.8199,9.313-9.2,9.313ZM503.6096,25.974c2.3,0,3.9301-1.52,3.9301-3.78,0-2.2209-1.5901-3.702-3.9301-3.702s-3.97,1.52-3.97,3.741,1.63,3.741,3.97,3.741Z"/>
  <path class="cls-1" d="M475.7296,13.388l-4.09-3.351c1.9399-3.467,5.41-5.883,9.62-5.883,5.42,0,9.12,3.507,9.12,8.689,0,2.883-1.17,5.338-3.24,7.325l-5.96,5.806h9.2v5.455h-17.96v-4.364l10.4399-10.131c1.48-1.442,2.0601-2.494,2.0601-3.779,0-2.143-1.63-3.546-3.78-3.546-2.14,0-4.13,1.48-5.41,3.779Z"/>
  <path class="cls-2" d="M274.7076,3.932h-2.16v46.347h2.16V3.932Z"/>
  <path class="cls-2" d="M86.0086,27.184c1.402,8.546-6.0229,13.365-13.541,13.915-4.788,9.834-21.663,16.481-36.274,9.315-6.241.945-9.678-.613-12.326-3.603,5.348-6.8849,21.537-19.264,41.32-12.867,10.561,3.406,13.303-4.611,10.644-7.612-9.959-11.309-32.462-1.132-33.262-.28,8.838-13.511,40.438-17.301,43.45,1.132M55.7166,11.659c.052-.021-7.186-2.576-17.3,1.796-.052.031-1.195-.519-1.195-.519,9.731-6.47,18.267-9.211,25.567-8.141-4.424-5.089-25.65-8.817-37.81,3.364C9.9416,5.2-.5784,17.9409.0247,29.572c.602,11.631,13.292,18.879,20.52,16.917.176-.052.353,0,.519,0,1.6089-7.685,8.141-25.567,34.6429-34.82M116.2696,22.293l1.35-5.9301h-22.638l-.52,2.295c-.592,2.025,1.018,3.468,2.742,3.417h10.488l-18.599,16.407-1.256,5.504h23.988l1.382-6.033h-15.172l18.235-15.681v.0211ZM131.3686,27.07c-1.059-.27-7.009-1.164-6.646-3.22.415-2.305,3.24-2.5229,4.611-2.482,2.824.083,3.718,1.33,3.863,1.766.395,1.173,1.298,1.765,2.617,1.765h4.465c.488-2.762.623-9.138-9.751-9.138-3.333,0-7.768.83-10.706,4.216-1.579,1.817-4.279,6.314-1.506,9.699,1.454,1.714,5.234,3.043,9.284,3.842,2.617.509,4.008,1.558,3.717,2.804-.176.831-1.225,2.711-5.078,2.7-1.734,0-5.462-.27-4.756-4.154h-7.061c-.831,3.521-1.132,9.658,9.636,9.658,4.154,0,12.607-.53,14.809-9.356,1.589-6.356-5.577-7.612-7.498-8.1ZM156.3336,36.831c-1.755,1.547-3.354,1.651-4.538,1.662-5.338.052-4.736-5.224-4.009-8.412.738-3.178,2.441-8.318,7.508-8.308,3.593,0,4.009,2.327,4.196,3.012h7.269c-.26-7.664-6.137-9.139-10.291-9.035-11.392.281-14.684,9.803-15.702,14.227-2.98,12.929,5.296,14.539,9.243,14.539,3.25,0,10.353-.79,14.517-9.035h-5.192c-1.495-.052-2.191.613-3.012,1.34M186.0026,39.479c-1.371,1.703-4.154,3.946-8.215,4.621-6.313,1.039-14.995.7791-12.804-8.3069.696-2.898,1.786-4.798,3.957-6.231,3.645-2.399,8.494-2.731,10.062-2.908.54-.062,4.507-.353,5.193-2.71.664-2.285-2.981-2.472-3.998-2.482-3.116-.042-4.185,1.215-4.705,1.973h-6.957c2.814-7.394,10.561-7.685,12.669-7.685,2.337,0,11.755,0,9.959,7.789-2.731,11.89-2.835,13.074-5.141,15.94M182.8976,30.081c-1.122.613-3.926,1.215-4.351,1.34-1.454.436-4.175.612-5.515,1.869-1.142,1.07-3.146,5.514,1.62,5.608,2.96.062,6.657-1.61,7.695-6.428.239-1.0909.551-2.399.551-2.399M200.7797,8.273h-3.738l-8.152,35.723h7.269l7.363-32.296c.301-1.017.103-3.333-2.7419-3.427ZM219.6176,35.481h5.202c-1.63,3.302-5.857,9.045-14.528,9.035-11.059,0-10.374-9.855-9.242-14.539,3.136-13.001,11.838-14.227,15.712-14.227,5.171,0,13.271,2.14,9.159,16.304h-17.965c-.436,1.88-.821,6.491,4.143,6.439,2.607-.032,3.583-.977,3.822-1.091.675-.342,1.298-1.869,3.717-1.921M209.0046,27.3809h10.592c.903-5.078-2.243-5.608-4.019-5.608-1.526,0-5.14.551-6.573,5.608ZM235.1946,19.385c-4.86,3.323-6.47,8.65-7.041,11.215-.447,2.015-3.064,13.396-3.064,13.396h7.28s2.752-12.534,3.24-14.226c.571-2.005,2.44-7.425,9.689-7.207l1.682-6.2c-5.857-.187-9.73,1.61-11.797,3.022M247.8846,10.984l.187-.873h3.915l-.187.873h-1.402l-.8,3.821h-1.038l.799-3.821h-1.474ZM254.3226,10.111l.364,3.396h.01l1.807-3.396h1.443l-.986,4.694h-.966l.852-3.728h-.011l-1.983,3.728h-.79l-.456-3.728h-.011l-.706,3.728h-.976l.986-4.694h1.423Z"/>
</svg>