<?xml version="1.0" encoding="UTF-8"?>
<svg id="Layer_1" data-name="Layer 1" xmlns="http://www.w3.org/2000/svg" viewBox="0 0 406.909 188.156">
  <defs>
    <style>
      .cls-1 {
        fill: #6bffb3;
      }

      .cls-2 {
        fill: #011130;
      }
    </style>
  </defs>
  <path class="cls-2" d="M374.639,115.645c-22.59,0-32.27-8.581-32.27-26.476,0-17.822,9.6801-26.33,32.27-26.33,22.51,0,32.27,8.581,32.27,26.33,0,17.822-9.76,26.476-32.27,26.476ZM374.639,99.51c11.22,0,13.2-4.914,13.2-10.341,0-5.354-1.9099-10.195-13.2-10.195-11.3,0-13.2,4.768-13.2,10.195,0,5.5,1.98,10.341,13.2,10.341Z"/>
  <path class="cls-2" d="M341.629,63.573v16.135h-22.01v35.204h-19.0699v-35.204h-22v-16.135h63.08Z"/>
  <path class="cls-2" d="M247.759,78.241h-35.21v4.767h35.21v12.468h-35.21v4.767h35.21v14.669h-54.28v-51.339h54.28v14.668Z"/>
  <path class="cls-2" d="M126.928,89.169c0-17.822,9.681-26.33,32.27-26.33,20.531,0,31.241,7.188,32.051,23.396h-19.51c-.73-4.84-4.47-7.261-12.541-7.261-11.295,0-13.202,4.768-13.202,10.195,0,5.5,1.98,10.341,13.202,10.341,8.071,0,11.811-2.494,12.541-7.408h19.51c-.8099,16.282-11.44,23.543-32.051,23.543-22.589,0-32.27-8.581-32.27-26.476Z"/>
  <path class="cls-2" d="M111.05,114.912l-3.52-9.241h-21.856l-3.52,9.241h-20.976l21.269-51.339h28.31l21.269,51.339h-20.976ZM90.662,92.469h11.881l-5.941-15.695-5.94,15.695Z"/>
  <path class="cls-2" d="M51.331,99.68l9.113,14.777h-22.634l-7.127-12.052h-11.247v12.052H.325v-51.45h40.424c11.69,0,19.695,8.234,19.695,19.696,0,7.495-3.456,13.669-9.113,16.977ZM19.43,86.232h17.642c1.912,0,4.261,0,4.261-3.529s-2.349-3.53-4.261-3.53h-17.642v7.059Z"/>
  <path class="cls-2" d="M301.669,150.752h-35.2001v4.768h35.2001v12.468h-35.2001v4.767h35.2001v14.668h-54.27v-51.339h54.27v14.668Z"/>
  <path class="cls-2" d="M244.4689,161.68c0,17.822-9.75,26.476-32.2699,26.476-22.5901,0-32.2701-8.58-32.2701-26.476v-25.596h19.07v25.596c0,5.501,1.98,10.341,13.2001,10.341s13.2-4.913,13.2-10.341v-25.596h19.0699v25.596Z"/>
  <path class="cls-2" d="M143.995,171.288h33.734v16.135h-52.803v-51.339h19.069v35.204Z"/>
  <path class="cls-2" d="M102.443,187.423l-3.521-9.241h-21.855l-3.521,9.241h-20.975l21.269-51.339h28.309l21.269,51.339h-20.975ZM82.054,164.981h11.881l-5.94-15.695-5.941,15.695Z"/>
  <path class="cls-2" d="M49.872,136.084h20.976l-21.269,51.339h-28.31L0,136.084h20.976l14.4481,38.138,14.448-38.138Z"/>
  <path class="cls-2" d="M212.8389,14.871c2.3401-3.524,5.3401-5.13,9.64-5.13,6.63,0,10.05,3.938,10.05,11.606v14.923h-4.5v-15.493c0-4.507-2.08-6.891-6.02-6.891-5.13,0-7.66,3.42-7.66,10.311v12.073h-4.46v-15.493c0-4.507-2.12-6.891-6.11-6.891-5.03,0-7.52,3.42-7.52,10.311v12.073h-4.45V10.363h4.2999v4.145c1.66-3.265,4.5601-4.767,8.24-4.767,4.04,0,6.9401,1.762,8.49,5.13Z"/>
  <path class="cls-2" d="M175.499,9.741c6.07,0,10.11,2.539,10.11,8.912v17.617h-4.46v-3.679c-1.81,2.695-4.35,4.301-8.44,4.301-5.34,0-8.865-3.109-8.865-7.565,0-4.56,3.165-7.306,8.545-7.98l3.84-.466c3.52-.414,4.92-1.451,4.92-3.472,0-2.279-1.97-3.678-5.7-3.678-3.83,0-6.22,1.658-6.73,4.663l-3.94-2.124c1.09-4.249,4.71-6.529,10.72-6.529ZM173.479,32.85c4.56,0,7.67-3.16,7.67-7.565v-2.28c-1.09.881-2.49,1.348-4.51,1.659l-3.42.466c-3.16.414-4.71,1.813-4.71,4.041,0,2.177,1.86,3.679,4.97,3.679Z"/>
  <path class="cls-2" d="M134.73,23.524c0-7.617,4.974-13.783,12.798-13.783,8.135,0,12.436,5.907,12.436,13.575v1.348h-20.726v.051c.259,5.286,4.093,8.032,8.498,8.032,3.782,0,6.425-1.866,8.238-3.99l2.332,3.472c-2.073,2.331-5.544,4.663-10.363,4.663-7.824,0-13.213-5.182-13.213-13.368ZM139.445,21.088h15.6479c-.414-4.3-2.849-7.202-7.513-7.202-4.87,0-7.513,2.902-8.1349,7.202Z"/>
  <path class="cls-2" d="M132.372,31.969v3.938c-1.348.363-2.798.622-4.4561.622-4.7159,0-7.151-2.021-7.151-7.513v-14.767h-5.1299v-3.886h5.1299V3.419h4.4561v6.944h7.099v3.886h-7.099v15.026c0,1.969.777,3.109,2.954,3.109,1.658,0,2.798-.155,4.197-.415Z"/>
  <path class="cls-1" d="M112.006,36.27h-23.421V0h23.421v7.254h-16.167v7.254h16.167v7.254h-16.167v7.254h16.167v7.254Z"/>
  <path class="cls-1" d="M55.005,36.27h-7.255V0h6.322l19.586,23.835V0h7.254v36.27h-6.321l-19.586-23.835v23.835Z"/>
  <path class="cls-1" d="M24.041,36.27c-10.363,0-18.1349-7.772-18.1349-18.135S13.678,0,24.041,0s18.135,7.772,18.135,18.135-7.772,18.135-18.135,18.135ZM24.041,29.016c6.321,0,10.881-4.56,10.881-10.881,0-6.373-4.56-10.881-10.881-10.881-6.373,0-10.881,4.508-10.881,10.881,0,6.321,4.508,10.881,10.881,10.881Z"/>
</svg>